<svg width="19" height="20" viewBox="0 0 19 20" fill="none" xmlns="http://www.w3.org/2000/svg">
<path fill-rule="evenodd" clip-rule="evenodd" d="M14.3194 13.433C15.5664 11.8254 16.1541 9.80305 15.9629 7.77748C15.7717 5.7519 14.8161 3.87524 13.2904 2.52927C11.7646 1.1833 9.78344 0.469132 7.74984 0.53206C5.71624 0.594988 3.783 1.43028 2.34341 2.86801C0.902562 4.30674 0.0645358 6.24073 0.000103898 8.27588C-0.064328 10.311 0.649684 12.2942 1.99663 13.8211C3.34359 15.3481 5.2221 16.304 7.24938 16.4941C9.27665 16.6842 11.3001 16.094 12.9074 14.844L12.9504 14.889L17.1924 19.132C17.2853 19.2249 17.3956 19.2986 17.517 19.3489C17.6384 19.3992 17.7685 19.4251 17.8999 19.4251C18.0313 19.4251 18.1614 19.3992 18.2828 19.3489C18.4042 19.2986 18.5145 19.2249 18.6074 19.132C18.7003 19.0391 18.774 18.9288 18.8243 18.8074C18.8746 18.686 18.9005 18.5559 18.9005 18.4245C18.9005 18.2931 18.8746 18.163 18.8243 18.0416C18.774 17.9202 18.7003 17.8099 18.6074 17.717L14.3644 13.475L14.3194 13.433ZM12.2434 4.28301C12.808 4.83849 13.257 5.50026 13.5646 6.23015C13.8722 6.96004 14.0322 7.7436 14.0354 8.53563C14.0386 9.32767 13.885 10.1125 13.5834 10.8449C13.2818 11.5772 12.8382 12.2426 12.2781 12.8027C11.718 13.3628 11.0526 13.8064 10.3203 14.108C9.5879 14.4096 8.80306 14.5632 8.01103 14.56C7.21899 14.5568 6.43543 14.3968 5.70554 14.0892C4.97565 13.7816 4.31389 13.3326 3.75841 12.768C2.64832 11.6397 2.02906 10.1185 2.03551 8.53563C2.04195 6.95281 2.67358 5.43666 3.79282 4.31742C4.91205 3.19819 6.4282 2.56656 8.01103 2.56011C9.59385 2.55367 11.1151 3.17293 12.2434 4.28301Z" fill="#BBBBBB"/>
</svg>
